<mxfile host="app.diagrams.net" agent="Mozilla/5.0 (Windows NT 10.0; Win64; x64) AppleWebKit/537.36 (KHTML, like Gecko) Chrome/132.0.0.0 Safari/537.36 OPR/117.0.0.0" version="26.2.4">
  <diagram name="Página-1" id="vDnesFR1LRjktobDP0T8">
    <mxGraphModel dx="1186" dy="710" grid="1" gridSize="10" guides="1" tooltips="1" connect="1" arrows="1" fold="1" page="1" pageScale="1" pageWidth="827" pageHeight="1169" math="0" shadow="0">
      <root>
        <mxCell id="0" />
        <mxCell id="1" parent="0" />
        <mxCell id="Fbz0eHLQ1DB-xt59qIL1-1" value="usuário&lt;div&gt;&lt;br&gt;&lt;/div&gt;" style="shape=umlActor;verticalLabelPosition=bottom;verticalAlign=top;html=1;outlineConnect=0;" vertex="1" parent="1">
          <mxGeometry x="1200" y="220" width="40" height="60" as="geometry" />
        </mxCell>
        <mxCell id="Fbz0eHLQ1DB-xt59qIL1-3" value="login" style="ellipse;whiteSpace=wrap;html=1;" vertex="1" parent="1">
          <mxGeometry x="1000" y="340" width="160" height="50" as="geometry" />
        </mxCell>
        <mxCell id="Fbz0eHLQ1DB-xt59qIL1-4" value="criar conta" style="ellipse;whiteSpace=wrap;html=1;" vertex="1" parent="1">
          <mxGeometry x="1280" y="340" width="160" height="50" as="geometry" />
        </mxCell>
        <mxCell id="Fbz0eHLQ1DB-xt59qIL1-22" style="rounded=0;orthogonalLoop=1;jettySize=auto;html=1;" edge="1" parent="1" source="Fbz0eHLQ1DB-xt59qIL1-6" target="Fbz0eHLQ1DB-xt59qIL1-20">
          <mxGeometry relative="1" as="geometry" />
        </mxCell>
        <mxCell id="Fbz0eHLQ1DB-xt59qIL1-23" style="rounded=0;orthogonalLoop=1;jettySize=auto;html=1;exitX=0.413;exitY=1.02;exitDx=0;exitDy=0;entryX=0.5;entryY=0;entryDx=0;entryDy=0;exitPerimeter=0;" edge="1" parent="1" source="Fbz0eHLQ1DB-xt59qIL1-6" target="Fbz0eHLQ1DB-xt59qIL1-21">
          <mxGeometry relative="1" as="geometry" />
        </mxCell>
        <mxCell id="Fbz0eHLQ1DB-xt59qIL1-6" value="dashboard" style="ellipse;whiteSpace=wrap;html=1;" vertex="1" parent="1">
          <mxGeometry x="1000" y="440" width="160" height="50" as="geometry" />
        </mxCell>
        <mxCell id="Fbz0eHLQ1DB-xt59qIL1-7" value="verificar cadastro" style="ellipse;whiteSpace=wrap;html=1;" vertex="1" parent="1">
          <mxGeometry x="1280" y="440" width="160" height="50" as="geometry" />
        </mxCell>
        <mxCell id="Fbz0eHLQ1DB-xt59qIL1-8" value="registrar saída" style="ellipse;whiteSpace=wrap;html=1;" vertex="1" parent="1">
          <mxGeometry x="1280" y="560" width="160" height="50" as="geometry" />
        </mxCell>
        <mxCell id="Fbz0eHLQ1DB-xt59qIL1-9" value="registrar entrada" style="ellipse;whiteSpace=wrap;html=1;" vertex="1" parent="1">
          <mxGeometry x="760" y="560" width="160" height="50" as="geometry" />
        </mxCell>
        <mxCell id="Fbz0eHLQ1DB-xt59qIL1-12" value="" style="endArrow=classic;html=1;rounded=0;entryX=0.331;entryY=0.06;entryDx=0;entryDy=0;entryPerimeter=0;exitX=1;exitY=1;exitDx=0;exitDy=0;" edge="1" parent="1" source="Fbz0eHLQ1DB-xt59qIL1-6" target="Fbz0eHLQ1DB-xt59qIL1-8">
          <mxGeometry width="50" height="50" relative="1" as="geometry">
            <mxPoint x="1141" y="483" as="sourcePoint" />
            <mxPoint x="1230" y="500" as="targetPoint" />
          </mxGeometry>
        </mxCell>
        <mxCell id="Fbz0eHLQ1DB-xt59qIL1-13" value="" style="endArrow=classic;html=1;rounded=0;exitX=0;exitY=1;exitDx=0;exitDy=0;" edge="1" parent="1" source="Fbz0eHLQ1DB-xt59qIL1-6" target="Fbz0eHLQ1DB-xt59qIL1-9">
          <mxGeometry width="50" height="50" relative="1" as="geometry">
            <mxPoint x="1040" y="480" as="sourcePoint" />
            <mxPoint x="1102" y="540" as="targetPoint" />
          </mxGeometry>
        </mxCell>
        <mxCell id="Fbz0eHLQ1DB-xt59qIL1-15" value="" style="endArrow=classic;html=1;rounded=0;entryX=0.415;entryY=0;entryDx=0;entryDy=0;entryPerimeter=0;" edge="1" parent="1" target="Fbz0eHLQ1DB-xt59qIL1-4">
          <mxGeometry width="50" height="50" relative="1" as="geometry">
            <mxPoint x="1240" y="250" as="sourcePoint" />
            <mxPoint x="1320" y="320" as="targetPoint" />
          </mxGeometry>
        </mxCell>
        <mxCell id="Fbz0eHLQ1DB-xt59qIL1-16" value="" style="endArrow=classic;html=1;rounded=0;entryX=0.5;entryY=0;entryDx=0;entryDy=0;exitX=0.5;exitY=1;exitDx=0;exitDy=0;" edge="1" parent="1" source="Fbz0eHLQ1DB-xt59qIL1-4" target="Fbz0eHLQ1DB-xt59qIL1-7">
          <mxGeometry width="50" height="50" relative="1" as="geometry">
            <mxPoint x="1360" y="390" as="sourcePoint" />
            <mxPoint x="1300" y="446" as="targetPoint" />
          </mxGeometry>
        </mxCell>
        <mxCell id="Fbz0eHLQ1DB-xt59qIL1-17" value="" style="endArrow=classic;html=1;rounded=0;entryX=0.592;entryY=0.02;entryDx=0;entryDy=0;entryPerimeter=0;" edge="1" parent="1" target="Fbz0eHLQ1DB-xt59qIL1-3">
          <mxGeometry width="50" height="50" relative="1" as="geometry">
            <mxPoint x="1200" y="250" as="sourcePoint" />
            <mxPoint x="1330" y="330" as="targetPoint" />
          </mxGeometry>
        </mxCell>
        <mxCell id="Fbz0eHLQ1DB-xt59qIL1-18" value="" style="endArrow=classic;html=1;rounded=0;entryX=0.5;entryY=0;entryDx=0;entryDy=0;exitX=0.5;exitY=1;exitDx=0;exitDy=0;" edge="1" parent="1" source="Fbz0eHLQ1DB-xt59qIL1-3" target="Fbz0eHLQ1DB-xt59qIL1-6">
          <mxGeometry width="50" height="50" relative="1" as="geometry">
            <mxPoint x="1094.76" y="390" as="sourcePoint" />
            <mxPoint x="1094.76" y="440" as="targetPoint" />
          </mxGeometry>
        </mxCell>
        <mxCell id="Fbz0eHLQ1DB-xt59qIL1-19" value="" style="endArrow=classic;html=1;rounded=0;entryX=1;entryY=0.5;entryDx=0;entryDy=0;exitX=0;exitY=0.5;exitDx=0;exitDy=0;" edge="1" parent="1" source="Fbz0eHLQ1DB-xt59qIL1-7" target="Fbz0eHLQ1DB-xt59qIL1-3">
          <mxGeometry width="50" height="50" relative="1" as="geometry">
            <mxPoint x="1210" y="390" as="sourcePoint" />
            <mxPoint x="1210" y="440" as="targetPoint" />
          </mxGeometry>
        </mxCell>
        <mxCell id="Fbz0eHLQ1DB-xt59qIL1-20" value="cadastrar ativo" style="ellipse;whiteSpace=wrap;html=1;" vertex="1" parent="1">
          <mxGeometry x="1119" y="630" width="161" height="50" as="geometry" />
        </mxCell>
        <mxCell id="Fbz0eHLQ1DB-xt59qIL1-21" value="cadastrar passivo" style="ellipse;whiteSpace=wrap;html=1;" vertex="1" parent="1">
          <mxGeometry x="880" y="630" width="160" height="50" as="geometry" />
        </mxCell>
      </root>
    </mxGraphModel>
  </diagram>
</mxfile>
